<svg width="24" height="24" viewBox="0 0 24 24" fill="none" xmlns="http://www.w3.org/2000/svg">
<path d="M10.6614 1C9.35018 1 8.09266 1.52088 7.16549 2.44805C6.23832 3.37522 5.71745 4.63273 5.71745 5.94395C5.71745 7.25516 6.23832 8.51267 7.16549 9.43984C8.09266 10.367 9.35018 10.8879 10.6614 10.8879C11.9726 10.8879 13.2301 10.367 14.1573 9.43984C15.0845 8.51267 15.6053 7.25516 15.6053 5.94395C15.6053 4.63273 15.0845 3.37522 14.1573 2.44805C13.2301 1.52088 11.9726 1 10.6614 1ZM11.1586 13.2947C11.4358 12.8921 11.1718 12.2805 10.6823 12.2816H10.2313L9.35679 12.2827C7.40565 12.2827 5.53442 13.0578 4.15475 14.4374C2.77509 15.8171 2 17.6883 2 19.6395C2 20.4359 2.31639 21.1998 2.87956 21.7629C3.44273 22.3261 4.20655 22.6425 5.003 22.6425H10.7461C11.2411 22.6425 11.5084 22.0111 11.2213 21.6074C10.346 20.3813 9.87669 18.9118 9.87929 17.4054C9.87929 15.8786 10.3523 14.4629 11.1586 13.2947Z" fill="#C6C6C6"/>
<path fill-rule="evenodd" clip-rule="evenodd" d="M22.7182 17.406C22.7182 18.1405 22.5736 18.8679 22.2925 19.5465C22.0114 20.2252 21.5993 20.8418 21.0799 21.3612C20.5605 21.8806 19.9439 22.2926 19.2653 22.5737C18.5866 22.8548 17.8593 22.9995 17.1247 22.9995C16.3902 22.9995 15.6628 22.8548 14.9842 22.5737C14.3056 22.2926 13.689 21.8806 13.1695 21.3612C12.6501 20.8418 12.2381 20.2252 11.957 19.5465C11.6759 18.8679 11.5312 18.1405 11.5312 17.406C11.5313 15.9225 12.1206 14.4998 13.1695 13.4508C14.2185 12.4018 15.6413 11.8125 17.1247 11.8125C18.6082 11.8125 20.031 12.4018 21.0799 13.4508C22.1289 14.4998 22.7182 15.9225 22.7182 17.406ZM19.7196 14.81C19.7965 14.8866 19.8574 14.9777 19.899 15.0779C19.9406 15.1781 19.962 15.2856 19.962 15.3941C19.962 15.5026 19.9406 15.6101 19.899 15.7103C19.8574 15.8105 19.7965 15.9016 19.7196 15.9782L18.6801 17.0166C18.6289 17.0677 18.5883 17.1284 18.5606 17.1952C18.5328 17.262 18.5186 17.3337 18.5186 17.406C18.5186 17.4783 18.5328 17.55 18.5606 17.6168C18.5883 17.6836 18.6289 17.7443 18.6801 17.7954L19.7196 18.8349C19.8654 18.9913 19.9447 19.1981 19.9409 19.4119C19.9372 19.6256 19.8506 19.8295 19.6994 19.9807C19.5483 20.1318 19.3443 20.2184 19.1306 20.2222C18.9169 20.226 18.71 20.1466 18.5536 20.0009L17.5141 18.9614C17.411 18.8583 17.2711 18.8004 17.1253 18.8004C16.9795 18.8004 16.8396 18.8583 16.7364 18.9614L15.6969 20.0009C15.5406 20.1466 15.3337 20.226 15.12 20.2222C14.9062 20.2184 14.7023 20.1318 14.5512 19.9807C14.4 19.8295 14.3134 19.6256 14.3097 19.4119C14.3059 19.1981 14.3852 18.9913 14.5309 18.8349L15.5693 17.7954C15.6725 17.6923 15.7304 17.5524 15.7304 17.4065C15.7304 17.2607 15.6725 17.1208 15.5693 17.0177L14.5298 15.9782C14.3795 15.8227 14.2962 15.6143 14.298 15.398C14.2998 15.1817 14.3865 14.9747 14.5393 14.8217C14.6922 14.6687 14.8991 14.5818 15.1154 14.5798C15.3317 14.5778 15.5402 14.6609 15.6958 14.8111L16.7364 15.8506C16.8396 15.9537 16.9795 16.0116 17.1253 16.0116C17.2711 16.0116 17.411 15.9537 17.5141 15.8506L18.5536 14.8111C18.7083 14.6566 18.918 14.5698 19.1366 14.5698C19.3553 14.5698 19.565 14.6555 19.7196 14.81Z" fill="#C6C6C6"/>
</svg>
