<svg width="16" height="16" viewBox="0 0 16 16" fill="none" xmlns="http://www.w3.org/2000/svg">
<path fill-rule="evenodd" clip-rule="evenodd" d="M9.49634 15.667C10.4667 14.5375 10.5561 13.3176 9.76461 12.0072C9.5445 12.7102 9.14187 13.1369 8.55665 13.2872C9.1001 12.0657 8.64598 10.7459 7.19428 9.32796C7.16295 10.7924 6.71582 11.8592 5.85288 12.5284C4.66409 13.4493 4.67807 14.4886 5.8948 15.6463C0.843911 13.5306 0.131283 10.6931 3.75696 7.13384C3.98179 7.99371 4.52676 8.52162 5.39181 8.71756C4.44886 5.56815 5.44096 2.88462 8.36798 0.666992C8.38596 5.5884 10.3033 6.02584 12.7276 8.22265C15.345 10.8589 13.8068 13.9013 9.49634 15.667Z" fill="#C6C6C6"/>
</svg>
