<svg width="72" height="72" viewBox="0 0 72 72" fill="none" xmlns="http://www.w3.org/2000/svg">
<path d="M59.7893 41.4079H12.2031V28.9941L35.9962 20.7183L59.7893 28.9941V41.4079Z" fill="#52B788"/>
<path d="M35.9962 41.4079H12.2031V28.9941L35.9962 20.7183V41.4079Z" fill="#40916C"/>
<path d="M36 6L38.8769 11.8293L45.3103 12.7634L40.6552 17.3017L41.7538 23.7093L36 20.6834L30.2462 23.7093L31.3448 17.3017L26.6897 12.7634L33.1231 11.8293L36 6ZM54.6207 8.06897L56.219 11.3069L59.7931 11.8262L57.2069 14.3472L57.8172 17.9069L54.6207 16.2259L51.4241 17.9069L52.0345 14.3472L49.4483 11.8262L53.0224 11.3069L54.6207 8.06897ZM11.1724 13.2414L12.7707 16.4793L16.3448 16.9986L13.7586 19.5197L14.369 23.0793L11.1724 21.3983L7.97586 23.0793L8.58621 19.5197L6 16.9986L9.57414 16.4793L11.1724 13.2414ZM20.3059 6.23483L21.5845 8.82621L24.4438 9.24103L22.3748 11.2583L22.8631 14.1062L20.3059 12.7614L17.7486 14.1062L18.2369 11.2583L16.1679 9.24103L19.0272 8.82621L20.3059 6.23483Z" fill="#FFEA00"/>
<path d="M36 6L35.5252 10.5362C35.2849 12.8088 36.9326 14.846 39.2052 15.0861C39.9895 15.169 40.7811 15.0261 41.4869 14.6741L45.3103 12.7634L40.6552 17.3038L41.7538 23.7114L36 20.6834L30.2462 23.7093L31.3448 17.3038L26.6897 12.7634L33.1231 11.8324L36 6ZM54.6207 8.06897L54.4138 10.919C54.3295 12.0586 55.185 13.0506 56.3246 13.1348C56.6725 13.1606 57.0212 13.0978 57.3383 12.9528L59.7931 11.821L57.2069 14.3421L57.8172 17.9017L54.6207 16.2259L51.4241 17.9069L52.0345 14.3472L49.4483 11.821L53.0224 11.3038L54.6207 8.06897ZM11.1724 13.2414L10.9655 16.5372C10.893 17.6776 11.7586 18.6609 12.8988 18.7334C13.3385 18.7614 13.7756 18.6484 14.1466 18.4107L16.3448 16.9986L13.7586 19.5197L14.369 23.0793L11.1724 21.3983L7.97586 23.0793L8.58621 19.5197L6 16.9986L9.57414 16.4814L11.1724 13.2414ZM20.3059 6.23483L20.0793 7.86207C19.9244 8.99418 20.7167 10.0375 21.8488 10.1924C22.2865 10.2523 22.7318 10.1705 23.1197 9.95897L24.4438 9.23483L22.3748 11.2521L22.8631 14.1L20.3059 12.7552L17.7486 14.1L18.2369 11.2521L16.1679 9.23483L19.0272 8.82103L20.3059 6.23483Z" fill="#FFD000"/>
<path d="M36.0049 38.306C35.8141 38.3058 35.6272 38.2529 35.4646 38.1532C35.302 38.0534 35.1702 37.9106 35.0837 37.7406C34.9973 37.5706 34.9594 37.38 34.9745 37.1899C34.9895 36.9998 35.0568 36.8175 35.169 36.6632L36.0162 35.4984C37.7313 33.1268 37.7964 29.9405 36.1797 27.5008C36.0277 27.2725 35.9726 26.9933 36.0265 26.7244C36.0803 26.4555 36.2387 26.219 36.4668 26.0668C36.6949 25.9147 36.9741 25.8593 37.2431 25.9129C37.512 25.9664 37.7487 26.1246 37.9011 26.3525C39.9971 29.5126 39.9145 33.641 37.6942 36.7149L36.848 37.8798C36.7514 38.0127 36.6245 38.1206 36.4779 38.1948C36.3313 38.2689 36.1691 38.307 36.0049 38.306ZM27.729 31.0646C27.4823 31.0643 27.2438 30.9759 27.0566 30.8153L25.3135 29.3215C23.4745 27.7473 21.9984 25.7933 20.9867 23.5941C19.975 21.3949 19.4518 19.0026 19.4531 16.5818C19.4531 16.3075 19.5621 16.0444 19.7561 15.8504C19.9501 15.6564 20.2132 15.5474 20.4876 15.5474C20.762 15.5474 21.0251 15.6564 21.2191 15.8504C21.4131 16.0444 21.5221 16.3075 21.5221 16.5818C21.5202 18.7047 21.9785 20.8027 22.8654 22.7315C23.7523 24.6602 25.0466 26.3738 26.6593 27.7543L28.4024 29.2491C28.5613 29.387 28.6743 29.5701 28.7264 29.774C28.7785 29.9778 28.7672 30.1927 28.694 30.3899C28.6209 30.5872 28.4893 30.7574 28.3169 30.878C28.1444 30.9985 27.9394 31.0636 27.729 31.0646ZM44.2807 31.0646C44.0261 31.0642 43.7807 30.9698 43.5913 30.7997C43.4019 30.6296 43.2818 30.3956 43.2542 30.1425C43.2265 29.8895 43.2931 29.6351 43.4413 29.428C43.5895 29.221 43.8088 29.0759 44.0573 29.0205L46.2297 28.5384C50.0996 27.6649 53.0317 24.4984 53.6055 20.5729C53.6445 20.3013 53.7898 20.0562 54.0094 19.8917C54.229 19.7272 54.505 19.6567 54.7766 19.6956C55.0482 19.7346 55.2932 19.8799 55.4577 20.0995C55.6222 20.3191 55.6928 20.5951 55.6538 20.8667C54.9548 25.6426 51.387 29.495 46.6786 30.5577L44.5062 31.0398C44.4322 31.0562 44.3566 31.0645 44.2807 31.0646ZM42.2117 28.9956C42.0303 28.9968 41.8517 28.9497 41.6945 28.8591C41.4564 28.7229 41.2821 28.4978 41.21 28.2332C41.1378 27.9686 41.1737 27.6862 41.3097 27.4481L45.4476 20.2067C45.5871 19.9754 45.8116 19.8078 46.073 19.7398C46.3345 19.6719 46.6121 19.7088 46.8466 19.8428C47.0812 19.9769 47.254 20.1973 47.3281 20.4571C47.4023 20.7168 47.3719 20.9952 47.2435 21.2329L43.1055 28.4743C43.0155 28.632 42.8854 28.7632 42.7285 28.8548C42.5716 28.9463 42.3934 28.9949 42.2117 28.9956Z" fill="#FFEA00"/>
<path d="M48.4173 17.6163C48.9886 17.6163 49.4518 17.1532 49.4518 16.5818C49.4518 16.0105 48.9886 15.5474 48.4173 15.5474C47.846 15.5474 47.3828 16.0105 47.3828 16.5818C47.3828 17.1532 47.846 17.6163 48.4173 17.6163Z" fill="#FFEA00"/>
<path d="M28.761 9.33947C29.3324 9.33947 29.7955 8.87632 29.7955 8.30499C29.7955 7.73366 29.3324 7.27051 28.761 7.27051C28.1897 7.27051 27.7266 7.73366 27.7266 8.30499C27.7266 8.87632 28.1897 9.33947 28.761 9.33947Z" fill="#FFEA00"/>
<path d="M43.2454 9.33947C43.8167 9.33947 44.2799 8.87632 44.2799 8.30499C44.2799 7.73366 43.8167 7.27051 43.2454 7.27051C42.6741 7.27051 42.2109 7.73366 42.2109 8.30499C42.2109 8.87632 42.6741 9.33947 43.2454 9.33947Z" fill="#FFEA00"/>
<path d="M53.588 30.0297C53.3893 30.0295 53.1949 29.9721 53.0279 29.8643C52.861 29.7565 52.7287 29.6029 52.6468 29.4219C52.5648 29.2409 52.5367 29.0401 52.5659 28.8435C52.595 28.647 52.6801 28.463 52.8111 28.3135L60.0525 20.0377C60.2378 19.8494 60.4882 19.7392 60.7522 19.7297C61.0163 19.7201 61.2739 19.812 61.4724 19.9864C61.6709 20.1608 61.7951 20.4045 61.8196 20.6675C61.8441 20.9306 61.767 21.1931 61.6042 21.4011L54.3628 29.677C54.2661 29.7874 54.147 29.8759 54.0134 29.9368C53.8798 29.9976 53.7348 30.0293 53.588 30.0297Z" fill="#FFEA00"/>
<path d="M63.9329 18.6505C64.5042 18.6505 64.9674 18.1874 64.9674 17.616C64.9674 17.0447 64.5042 16.5815 63.9329 16.5815C63.3616 16.5815 62.8984 17.0447 62.8984 17.616C62.8984 18.1874 63.3616 18.6505 63.9329 18.6505Z" fill="#FFEA00"/>
<path d="M25.6595 19.6852C26.2308 19.6852 26.694 19.222 26.694 18.6507C26.694 18.0794 26.2308 17.6162 25.6595 17.6162C25.0882 17.6162 24.625 18.0794 24.625 18.6507C24.625 19.222 25.0882 19.6852 25.6595 19.6852Z" fill="#FFEA00"/>
<path d="M9.10479 9.33947C9.67612 9.33947 10.1393 8.87632 10.1393 8.30499C10.1393 7.73366 9.67612 7.27051 9.10479 7.27051C8.53347 7.27051 8.07031 7.73366 8.07031 8.30499C8.07031 8.87632 8.53347 9.33947 9.10479 9.33947Z" fill="#FFEA00"/>
<path d="M20.4845 28.9937C20.3059 28.9938 20.1302 28.9477 19.9747 28.8597C19.8191 28.7718 19.689 28.6451 19.597 28.492L16.4935 23.3195C16.4214 23.2044 16.3728 23.0762 16.3502 22.9422C16.3277 22.8082 16.3318 22.6711 16.3623 22.5387C16.3928 22.4064 16.449 22.2813 16.5279 22.1706C16.6067 22.06 16.7065 21.966 16.8217 21.8939C16.9395 21.8202 17.071 21.7709 17.2083 21.7491C17.3456 21.7273 17.4858 21.7334 17.6207 21.7671C17.7556 21.8007 17.8823 21.8611 17.9932 21.9448C18.1042 22.0285 18.1972 22.1337 18.2666 22.2542L21.3701 27.4266C21.4643 27.5834 21.5152 27.7625 21.5176 27.9455C21.5201 28.1285 21.4739 28.3088 21.3839 28.4681C21.2938 28.6274 21.1632 28.76 21.0052 28.8524C20.8472 28.9447 20.6675 28.9935 20.4845 28.9937Z" fill="#FFEA00"/>
<path d="M12.2031 57.9582L35.9962 66.2341V37.2685L12.2031 28.9927V57.9582Z" fill="#40916C"/>
<path d="M59.7931 57.9582L36 66.2341V37.2685L59.7931 28.9927V57.9582Z" fill="#95D5B2"/>
<path d="M59.7931 44.2099L44.2759 49.6823C44.2792 53.7962 47.6103 57.1318 51.7241 57.141C52.529 57.1386 53.3285 57.0094 54.0931 56.7582L59.7931 54.8547V57.9582L36 66.2341V37.2685L59.7931 28.9927V44.2099Z" fill="#52B788"/>
<path d="M66 38.303L42.2069 47.6134L36 37.2685L59.7931 28.9927L66 38.303ZM6 38.303L29.7931 47.6134L36 37.2685L12.2069 28.9927L6 38.303Z" fill="#D8F3DC"/>
<path d="M35.9962 60.0288L12.2031 51.753V46.5806L35.9962 54.8564V60.0288Z" fill="#C62828"/>
<path d="M36 60.0288L59.7931 51.753V46.5806L36 54.8564V60.0288Z" fill="#EF5350"/>
<path d="M47.7103 55.951L36 60.0268V54.8544L44.6069 51.8647C45.1175 53.5551 46.219 55.0054 47.7103 55.951Z" fill="#E53935"/>
<path d="M66 38.303L42.2069 47.6134L36 37.2685L40.2828 35.7789C42.6409 39.6144 47.4058 41.2129 51.6 39.5754L63.6931 34.8478L66 38.303ZM31.7793 44.303L29.7931 47.6134L6 38.303L12.2069 28.9927L15.4448 30.1203C13.9861 33.8481 15.8245 38.0529 19.5517 39.5134L31.7793 44.303Z" fill="#95D5B2"/>
<path d="M33.9345 33.1305C33.6601 33.1305 33.397 33.0215 33.203 32.8275C33.009 32.6335 32.9 32.3704 32.9 32.096V31.9191C32.9024 31.1269 32.7475 30.3421 32.4444 29.6101C32.1413 28.8782 31.6959 28.2136 31.1341 27.655C30.9457 27.4599 30.8414 27.1986 30.8438 26.9273C30.8461 26.6561 30.9549 26.3966 31.1467 26.2048C31.3385 26.013 31.598 25.9043 31.8692 25.9019C32.1405 25.8995 32.4018 26.0038 32.5969 26.1922C33.3513 26.9426 33.9494 27.8351 34.3565 28.8181C34.7637 29.8011 34.9719 30.8551 34.969 31.9191V32.096C34.969 32.3704 34.86 32.6335 34.666 32.8275C34.472 33.0215 34.2088 33.1305 33.9345 33.1305Z" fill="#FFEA00"/>
</svg>
